<svg width="474" height="35" viewBox="0 0 474 35" fill="none" xmlns="http://www.w3.org/2000/svg">
<g clip-path="url(#clip0)">
<g filter="url(#filter0_i)">
<path d="M129.129 8.68417C129.129 12.1723 125.177 14.9999 125.177 14.9999C125.177 14.9999 121.224 12.1723 121.224 8.68417C121.224 5.19607 122.994 2.36841 125.177 2.36841C127.36 2.36841 129.129 5.19607 129.129 8.68417Z" fill="#376FFF"/>
<path d="M129.129 8.68417C129.129 12.1723 125.177 14.9999 125.177 14.9999C125.177 14.9999 121.224 12.1723 121.224 8.68417C121.224 5.19607 122.994 2.36841 125.177 2.36841C127.36 2.36841 129.129 5.19607 129.129 8.68417Z" fill="url(#paint0_radial)"/>
</g>
<g filter="url(#filter1_i)">
<path d="M122.805 0H127.548L128.689 3.42021C128.906 4.06782 128.424 4.73683 127.741 4.73683H122.611C121.929 4.73683 121.447 4.06782 121.663 3.42021L122.805 0Z" fill="url(#paint1_linear)"/>
<path d="M122.805 0H127.548L128.689 3.42021C128.906 4.06782 128.424 4.73683 127.741 4.73683H122.611C121.929 4.73683 121.447 4.06782 121.663 3.42021L122.805 0Z" fill="url(#paint2_radial)"/>
</g>
<g filter="url(#filter2_i)">
<path d="M54.9054 8.6843C54.9054 12.1724 50.9527 15.0001 50.9527 15.0001C50.9527 15.0001 47 12.1724 47 8.6843C47 5.1962 48.7697 2.36853 50.9527 2.36853C53.1357 2.36853 54.9054 5.1962 54.9054 8.6843Z" fill="#FF0000"/>
<path d="M54.9054 8.6843C54.9054 12.1724 50.9527 15.0001 50.9527 15.0001C50.9527 15.0001 47 12.1724 47 8.6843C47 5.1962 48.7697 2.36853 50.9527 2.36853C53.1357 2.36853 54.9054 5.1962 54.9054 8.6843Z" fill="url(#paint3_radial)"/>
</g>
<g filter="url(#filter3_i)">
<path d="M48.5813 0H53.3245L54.4661 3.42021C54.6823 4.06782 54.2003 4.73683 53.5175 4.73683H48.3882C47.7055 4.73683 47.2235 4.06782 47.4397 3.42021L48.5813 0Z" fill="url(#paint4_linear)"/>
<path d="M48.5813 0H53.3245L54.4661 3.42021C54.6823 4.06782 54.2003 4.73683 53.5175 4.73683H48.3882C47.7055 4.73683 47.2235 4.06782 47.4397 3.42021L48.5813 0Z" fill="url(#paint5_radial)"/>
</g>
<g filter="url(#filter4_i)">
<path d="M240.463 8.6843C240.463 12.1724 236.511 15.0001 236.511 15.0001C236.511 15.0001 232.558 12.1724 232.558 8.6843C232.558 5.1962 234.328 2.36853 236.511 2.36853C238.694 2.36853 240.463 5.1962 240.463 8.6843Z" fill="#AD00FF"/>
<path d="M240.463 8.6843C240.463 12.1724 236.511 15.0001 236.511 15.0001C236.511 15.0001 232.558 12.1724 232.558 8.6843C232.558 5.1962 234.328 2.36853 236.511 2.36853C238.694 2.36853 240.463 5.1962 240.463 8.6843Z" fill="url(#paint6_radial)"/>
</g>
<g filter="url(#filter5_i)">
<path d="M234.138 0L238.881 0L240.023 3.42021C240.239 4.06782 239.757 4.73683 239.075 4.73683H233.945C233.262 4.73683 232.78 4.06782 232.997 3.42021L234.138 0Z" fill="url(#paint7_linear)"/>
<path d="M234.138 0L238.881 0L240.023 3.42021C240.239 4.06782 239.757 4.73683 239.075 4.73683H233.945C233.262 4.73683 232.78 4.06782 232.997 3.42021L234.138 0Z" fill="url(#paint8_radial)"/>
</g>
<g filter="url(#filter6_i)">
<path d="M92.0167 8.68417C92.0167 12.1723 88.064 14.9999 88.064 14.9999C88.064 14.9999 84.1113 12.1723 84.1113 8.68417C84.1113 5.19607 85.881 2.36841 88.064 2.36841C90.247 2.36841 92.0167 5.19607 92.0167 8.68417Z" fill="#FF378B"/>
<path d="M92.0167 8.68417C92.0167 12.1723 88.064 14.9999 88.064 14.9999C88.064 14.9999 84.1113 12.1723 84.1113 8.68417C84.1113 5.19607 85.881 2.36841 88.064 2.36841C90.247 2.36841 92.0167 5.19607 92.0167 8.68417Z" fill="url(#paint9_radial)"/>
</g>
<g filter="url(#filter7_i)">
<path d="M85.6926 0H90.4358L91.5774 3.42021C91.7936 4.06782 91.3116 4.73683 90.6289 4.73683H85.4995C84.8168 4.73683 84.3348 4.06782 84.551 3.42021L85.6926 0Z" fill="url(#paint10_linear)"/>
<path d="M85.6926 0H90.4358L91.5774 3.42021C91.7936 4.06782 91.3116 4.73683 90.6289 4.73683H85.4995C84.8168 4.73683 84.3348 4.06782 84.551 3.42021L85.6926 0Z" fill="url(#paint11_radial)"/>
</g>
<g filter="url(#filter8_i)">
<path d="M203.352 8.68417C203.352 12.1723 199.399 14.9999 199.399 14.9999C199.399 14.9999 195.447 12.1723 195.447 8.68417C195.447 5.19607 197.216 2.36841 199.399 2.36841C201.582 2.36841 203.352 5.19607 203.352 8.68417Z" fill="#FFD600"/>
<path d="M203.352 8.68417C203.352 12.1723 199.399 14.9999 199.399 14.9999C199.399 14.9999 195.447 12.1723 195.447 8.68417C195.447 5.19607 197.216 2.36841 199.399 2.36841C201.582 2.36841 203.352 5.19607 203.352 8.68417Z" fill="url(#paint12_radial)"/>
</g>
<g filter="url(#filter9_i)">
<path d="M197.027 0H201.77L202.912 3.42021C203.128 4.06782 202.646 4.73683 201.963 4.73683H196.834C196.151 4.73683 195.669 4.06782 195.885 3.42021L197.027 0Z" fill="url(#paint13_linear)"/>
<path d="M197.027 0H201.77L202.912 3.42021C203.128 4.06782 202.646 4.73683 201.963 4.73683H196.834C196.151 4.73683 195.669 4.06782 195.885 3.42021L197.027 0Z" fill="url(#paint14_radial)"/>
</g>
<g filter="url(#filter10_i)">
<path d="M166.241 8.68417C166.241 12.1723 162.288 14.9999 162.288 14.9999C162.288 14.9999 158.335 12.1723 158.335 8.68417C158.335 5.19607 160.105 2.36841 162.288 2.36841C164.471 2.36841 166.241 5.19607 166.241 8.68417Z" fill="#00FF66"/>
<path d="M166.241 8.68417C166.241 12.1723 162.288 14.9999 162.288 14.9999C162.288 14.9999 158.335 12.1723 158.335 8.68417C158.335 5.19607 160.105 2.36841 162.288 2.36841C164.471 2.36841 166.241 5.19607 166.241 8.68417Z" fill="url(#paint15_radial)"/>
</g>
<g filter="url(#filter11_i)">
<path d="M159.916 0H164.659L165.801 3.42021C166.017 4.06782 165.535 4.73683 164.852 4.73683H159.723C159.04 4.73683 158.558 4.06782 158.774 3.42021L159.916 0Z" fill="url(#paint16_linear)"/>
<path d="M159.916 0H164.659L165.801 3.42021C166.017 4.06782 165.535 4.73683 164.852 4.73683H159.723C159.04 4.73683 158.558 4.06782 158.774 3.42021L159.916 0Z" fill="url(#paint17_radial)"/>
</g>
<g filter="url(#filter12_i)">
<path d="M352.129 8.68417C352.129 12.1723 348.176 14.9999 348.176 14.9999C348.176 14.9999 344.223 12.1723 344.223 8.68417C344.223 5.19607 345.993 2.36841 348.176 2.36841C350.359 2.36841 352.129 5.19607 352.129 8.68417Z" fill="#376FFF"/>
<path d="M352.129 8.68417C352.129 12.1723 348.176 14.9999 348.176 14.9999C348.176 14.9999 344.223 12.1723 344.223 8.68417C344.223 5.19607 345.993 2.36841 348.176 2.36841C350.359 2.36841 352.129 5.19607 352.129 8.68417Z" fill="url(#paint18_radial)"/>
</g>
<g filter="url(#filter13_i)">
<path d="M345.804 0H350.547L351.689 3.42021C351.905 4.06782 351.423 4.73683 350.74 4.73683H345.611C344.928 4.73683 344.446 4.06782 344.662 3.42021L345.804 0Z" fill="url(#paint19_linear)"/>
<path d="M345.804 0H350.547L351.689 3.42021C351.905 4.06782 351.423 4.73683 350.74 4.73683H345.611C344.928 4.73683 344.446 4.06782 344.662 3.42021L345.804 0Z" fill="url(#paint20_radial)"/>
</g>
<g filter="url(#filter14_i)">
<path d="M277.905 8.6843C277.905 12.1724 273.953 15.0001 273.953 15.0001C273.953 15.0001 270 12.1724 270 8.6843C270 5.1962 271.77 2.36853 273.953 2.36853C276.136 2.36853 277.905 5.1962 277.905 8.6843Z" fill="#FF0000"/>
<path d="M277.905 8.6843C277.905 12.1724 273.953 15.0001 273.953 15.0001C273.953 15.0001 270 12.1724 270 8.6843C270 5.1962 271.77 2.36853 273.953 2.36853C276.136 2.36853 277.905 5.1962 277.905 8.6843Z" fill="url(#paint21_radial)"/>
</g>
<g filter="url(#filter15_i)">
<path d="M271.581 0H276.324L277.466 3.42021C277.682 4.06782 277.2 4.73683 276.518 4.73683H271.388C270.705 4.73683 270.223 4.06782 270.44 3.42021L271.581 0Z" fill="url(#paint22_linear)"/>
<path d="M271.581 0H276.324L277.466 3.42021C277.682 4.06782 277.2 4.73683 276.518 4.73683H271.388C270.705 4.73683 270.223 4.06782 270.44 3.42021L271.581 0Z" fill="url(#paint23_radial)"/>
</g>
<g filter="url(#filter16_i)">
<path d="M315.017 8.68417C315.017 12.1723 311.064 14.9999 311.064 14.9999C311.064 14.9999 307.111 12.1723 307.111 8.68417C307.111 5.19607 308.881 2.36841 311.064 2.36841C313.247 2.36841 315.017 5.19607 315.017 8.68417Z" fill="#FF378B"/>
<path d="M315.017 8.68417C315.017 12.1723 311.064 14.9999 311.064 14.9999C311.064 14.9999 307.111 12.1723 307.111 8.68417C307.111 5.19607 308.881 2.36841 311.064 2.36841C313.247 2.36841 315.017 5.19607 315.017 8.68417Z" fill="url(#paint24_radial)"/>
</g>
<g filter="url(#filter17_i)">
<path d="M308.693 0H313.436L314.577 3.42021C314.794 4.06782 314.312 4.73683 313.629 4.73683H308.5C307.817 4.73683 307.335 4.06782 307.551 3.42021L308.693 0Z" fill="url(#paint25_linear)"/>
<path d="M308.693 0H313.436L314.577 3.42021C314.794 4.06782 314.312 4.73683 313.629 4.73683H308.5C307.817 4.73683 307.335 4.06782 307.551 3.42021L308.693 0Z" fill="url(#paint26_radial)"/>
</g>
<g filter="url(#filter18_i)">
<path d="M426.351 8.68417C426.351 12.1723 422.399 14.9999 422.399 14.9999C422.399 14.9999 418.446 12.1723 418.446 8.68417C418.446 5.19607 420.216 2.36841 422.399 2.36841C424.582 2.36841 426.351 5.19607 426.351 8.68417Z" fill="#FFD600"/>
<path d="M426.351 8.68417C426.351 12.1723 422.399 14.9999 422.399 14.9999C422.399 14.9999 418.446 12.1723 418.446 8.68417C418.446 5.19607 420.216 2.36841 422.399 2.36841C424.582 2.36841 426.351 5.19607 426.351 8.68417Z" fill="url(#paint27_radial)"/>
</g>
<g filter="url(#filter19_i)">
<path d="M420.026 0H424.77L425.911 3.42021C426.127 4.06782 425.645 4.73683 424.963 4.73683H419.833C419.151 4.73683 418.669 4.06782 418.885 3.42021L420.026 0Z" fill="url(#paint28_linear)"/>
<path d="M420.026 0H424.77L425.911 3.42021C426.127 4.06782 425.645 4.73683 424.963 4.73683H419.833C419.151 4.73683 418.669 4.06782 418.885 3.42021L420.026 0Z" fill="url(#paint29_radial)"/>
</g>
<g filter="url(#filter20_i)">
<path d="M389.24 8.68417C389.24 12.1723 385.287 14.9999 385.287 14.9999C385.287 14.9999 381.335 12.1723 381.335 8.68417C381.335 5.19607 383.104 2.36841 385.287 2.36841C387.47 2.36841 389.24 5.19607 389.24 8.68417Z" fill="#00FF66"/>
<path d="M389.24 8.68417C389.24 12.1723 385.287 14.9999 385.287 14.9999C385.287 14.9999 381.335 12.1723 381.335 8.68417C381.335 5.19607 383.104 2.36841 385.287 2.36841C387.47 2.36841 389.24 5.19607 389.24 8.68417Z" fill="url(#paint30_radial)"/>
</g>
<g filter="url(#filter21_i)">
<path d="M382.915 0H387.658L388.8 3.42021C389.016 4.06782 388.534 4.73683 387.851 4.73683H382.722C382.039 4.73683 381.557 4.06782 381.773 3.42021L382.915 0Z" fill="url(#paint31_linear)"/>
<path d="M382.915 0H387.658L388.8 3.42021C389.016 4.06782 388.534 4.73683 387.851 4.73683H382.722C382.039 4.73683 381.557 4.06782 381.773 3.42021L382.915 0Z" fill="url(#paint32_radial)"/>
</g>
</g>
<defs>
<filter id="filter0_i" x="121.224" y="1.36841" width="7.90538" height="13.6315" filterUnits="userSpaceOnUse" color-interpolation-filters="sRGB">
<feFlood flood-opacity="0" result="BackgroundImageFix"/>
<feBlend mode="normal" in="SourceGraphic" in2="BackgroundImageFix" result="shape"/>
<feColorMatrix in="SourceAlpha" type="matrix" values="0 0 0 0 0 0 0 0 0 0 0 0 0 0 0 0 0 0 127 0" result="hardAlpha"/>
<feOffset dy="-3"/>
<feGaussianBlur stdDeviation="0.5"/>
<feComposite in2="hardAlpha" operator="arithmetic" k2="-1" k3="1"/>
<feColorMatrix type="matrix" values="0 0 0 0 0.4875 0 0 0 0 0.631 0 0 0 0 1 0 0 0 1 0"/>
<feBlend mode="normal" in2="shape" result="effect1_innerShadow"/>
</filter>
<filter id="filter1_i" x="121.611" y="0" width="7.13087" height="4.93682" filterUnits="userSpaceOnUse" color-interpolation-filters="sRGB">
<feFlood flood-opacity="0" result="BackgroundImageFix"/>
<feBlend mode="normal" in="SourceGraphic" in2="BackgroundImageFix" result="shape"/>
<feColorMatrix in="SourceAlpha" type="matrix" values="0 0 0 0 0 0 0 0 0 0 0 0 0 0 0 0 0 0 127 0" result="hardAlpha"/>
<feOffset dy="0.2"/>
<feGaussianBlur stdDeviation="0.5"/>
<feComposite in2="hardAlpha" operator="arithmetic" k2="-1" k3="1"/>
<feColorMatrix type="matrix" values="0 0 0 0 0 0 0 0 0 0 0 0 0 0 0 0 0 0 0.25 0"/>
<feBlend mode="normal" in2="shape" result="effect1_innerShadow"/>
</filter>
<filter id="filter2_i" x="47" y="1.36853" width="7.90538" height="13.6315" filterUnits="userSpaceOnUse" color-interpolation-filters="sRGB">
<feFlood flood-opacity="0" result="BackgroundImageFix"/>
<feBlend mode="normal" in="SourceGraphic" in2="BackgroundImageFix" result="shape"/>
<feColorMatrix in="SourceAlpha" type="matrix" values="0 0 0 0 0 0 0 0 0 0 0 0 0 0 0 0 0 0 127 0" result="hardAlpha"/>
<feOffset dy="-3"/>
<feGaussianBlur stdDeviation="0.5"/>
<feComposite in2="hardAlpha" operator="arithmetic" k2="-1" k3="1"/>
<feColorMatrix type="matrix" values="0 0 0 0 1 0 0 0 0 0.4 0 0 0 0 0.4 0 0 0 1 0"/>
<feBlend mode="normal" in2="shape" result="effect1_innerShadow"/>
</filter>
<filter id="filter3_i" x="47.3874" y="0" width="7.13087" height="4.93682" filterUnits="userSpaceOnUse" color-interpolation-filters="sRGB">
<feFlood flood-opacity="0" result="BackgroundImageFix"/>
<feBlend mode="normal" in="SourceGraphic" in2="BackgroundImageFix" result="shape"/>
<feColorMatrix in="SourceAlpha" type="matrix" values="0 0 0 0 0 0 0 0 0 0 0 0 0 0 0 0 0 0 127 0" result="hardAlpha"/>
<feOffset dy="0.2"/>
<feGaussianBlur stdDeviation="0.5"/>
<feComposite in2="hardAlpha" operator="arithmetic" k2="-1" k3="1"/>
<feColorMatrix type="matrix" values="0 0 0 0 0 0 0 0 0 0 0 0 0 0 0 0 0 0 0.25 0"/>
<feBlend mode="normal" in2="shape" result="effect1_innerShadow"/>
</filter>
<filter id="filter4_i" x="232.558" y="1.36853" width="7.90538" height="13.6315" filterUnits="userSpaceOnUse" color-interpolation-filters="sRGB">
<feFlood flood-opacity="0" result="BackgroundImageFix"/>
<feBlend mode="normal" in="SourceGraphic" in2="BackgroundImageFix" result="shape"/>
<feColorMatrix in="SourceAlpha" type="matrix" values="0 0 0 0 0 0 0 0 0 0 0 0 0 0 0 0 0 0 127 0" result="hardAlpha"/>
<feOffset dy="-3"/>
<feGaussianBlur stdDeviation="0.5"/>
<feComposite in2="hardAlpha" operator="arithmetic" k2="-1" k3="1"/>
<feColorMatrix type="matrix" values="0 0 0 0 0.805719 0 0 0 0 0.395833 0 0 0 0 1 0 0 0 1 0"/>
<feBlend mode="normal" in2="shape" result="effect1_innerShadow"/>
</filter>
<filter id="filter5_i" x="232.944" y="0" width="7.13087" height="4.93682" filterUnits="userSpaceOnUse" color-interpolation-filters="sRGB">
<feFlood flood-opacity="0" result="BackgroundImageFix"/>
<feBlend mode="normal" in="SourceGraphic" in2="BackgroundImageFix" result="shape"/>
<feColorMatrix in="SourceAlpha" type="matrix" values="0 0 0 0 0 0 0 0 0 0 0 0 0 0 0 0 0 0 127 0" result="hardAlpha"/>
<feOffset dy="0.2"/>
<feGaussianBlur stdDeviation="0.5"/>
<feComposite in2="hardAlpha" operator="arithmetic" k2="-1" k3="1"/>
<feColorMatrix type="matrix" values="0 0 0 0 0 0 0 0 0 0 0 0 0 0 0 0 0 0 0.25 0"/>
<feBlend mode="normal" in2="shape" result="effect1_innerShadow"/>
</filter>
<filter id="filter6_i" x="84.1113" y="1.36841" width="7.90538" height="13.6315" filterUnits="userSpaceOnUse" color-interpolation-filters="sRGB">
<feFlood flood-opacity="0" result="BackgroundImageFix"/>
<feBlend mode="normal" in="SourceGraphic" in2="BackgroundImageFix" result="shape"/>
<feColorMatrix in="SourceAlpha" type="matrix" values="0 0 0 0 0 0 0 0 0 0 0 0 0 0 0 0 0 0 127 0" result="hardAlpha"/>
<feOffset dy="-3"/>
<feGaussianBlur stdDeviation="0.5"/>
<feComposite in2="hardAlpha" operator="arithmetic" k2="-1" k3="1"/>
<feColorMatrix type="matrix" values="0 0 0 0 1 0 0 0 0 0.566667 0 0 0 0 0.566667 0 0 0 1 0"/>
<feBlend mode="normal" in2="shape" result="effect1_innerShadow"/>
</filter>
<filter id="filter7_i" x="84.4988" y="0" width="7.13087" height="4.93682" filterUnits="userSpaceOnUse" color-interpolation-filters="sRGB">
<feFlood flood-opacity="0" result="BackgroundImageFix"/>
<feBlend mode="normal" in="SourceGraphic" in2="BackgroundImageFix" result="shape"/>
<feColorMatrix in="SourceAlpha" type="matrix" values="0 0 0 0 0 0 0 0 0 0 0 0 0 0 0 0 0 0 127 0" result="hardAlpha"/>
<feOffset dy="0.2"/>
<feGaussianBlur stdDeviation="0.5"/>
<feComposite in2="hardAlpha" operator="arithmetic" k2="-1" k3="1"/>
<feColorMatrix type="matrix" values="0 0 0 0 0 0 0 0 0 0 0 0 0 0 0 0 0 0 0.25 0"/>
<feBlend mode="normal" in2="shape" result="effect1_innerShadow"/>
</filter>
<filter id="filter8_i" x="195.447" y="1.36841" width="7.90538" height="13.6315" filterUnits="userSpaceOnUse" color-interpolation-filters="sRGB">
<feFlood flood-opacity="0" result="BackgroundImageFix"/>
<feBlend mode="normal" in="SourceGraphic" in2="BackgroundImageFix" result="shape"/>
<feColorMatrix in="SourceAlpha" type="matrix" values="0 0 0 0 0 0 0 0 0 0 0 0 0 0 0 0 0 0 127 0" result="hardAlpha"/>
<feOffset dy="-3"/>
<feGaussianBlur stdDeviation="0.5"/>
<feComposite in2="hardAlpha" operator="arithmetic" k2="-1" k3="1"/>
<feColorMatrix type="matrix" values="0 0 0 0 1 0 0 0 0 0.9 0 0 0 0 0 0 0 0 1 0"/>
<feBlend mode="normal" in2="shape" result="effect1_innerShadow"/>
</filter>
<filter id="filter9_i" x="195.833" y="0" width="7.13087" height="4.93682" filterUnits="userSpaceOnUse" color-interpolation-filters="sRGB">
<feFlood flood-opacity="0" result="BackgroundImageFix"/>
<feBlend mode="normal" in="SourceGraphic" in2="BackgroundImageFix" result="shape"/>
<feColorMatrix in="SourceAlpha" type="matrix" values="0 0 0 0 0 0 0 0 0 0 0 0 0 0 0 0 0 0 127 0" result="hardAlpha"/>
<feOffset dy="0.2"/>
<feGaussianBlur stdDeviation="0.5"/>
<feComposite in2="hardAlpha" operator="arithmetic" k2="-1" k3="1"/>
<feColorMatrix type="matrix" values="0 0 0 0 0 0 0 0 0 0 0 0 0 0 0 0 0 0 0.25 0"/>
<feBlend mode="normal" in2="shape" result="effect1_innerShadow"/>
</filter>
<filter id="filter10_i" x="158.335" y="1.36841" width="7.90538" height="13.6315" filterUnits="userSpaceOnUse" color-interpolation-filters="sRGB">
<feFlood flood-opacity="0" result="BackgroundImageFix"/>
<feBlend mode="normal" in="SourceGraphic" in2="BackgroundImageFix" result="shape"/>
<feColorMatrix in="SourceAlpha" type="matrix" values="0 0 0 0 0 0 0 0 0 0 0 0 0 0 0 0 0 0 127 0" result="hardAlpha"/>
<feOffset dy="-3"/>
<feGaussianBlur stdDeviation="0.5"/>
<feComposite in2="hardAlpha" operator="arithmetic" k2="-1" k3="1"/>
<feColorMatrix type="matrix" values="0 0 0 0 0.4125 0 0 0 0 1 0 0 0 0 0.6475 0 0 0 1 0"/>
<feBlend mode="normal" in2="shape" result="effect1_innerShadow"/>
</filter>
<filter id="filter11_i" x="158.722" y="0" width="7.13087" height="4.93682" filterUnits="userSpaceOnUse" color-interpolation-filters="sRGB">
<feFlood flood-opacity="0" result="BackgroundImageFix"/>
<feBlend mode="normal" in="SourceGraphic" in2="BackgroundImageFix" result="shape"/>
<feColorMatrix in="SourceAlpha" type="matrix" values="0 0 0 0 0 0 0 0 0 0 0 0 0 0 0 0 0 0 127 0" result="hardAlpha"/>
<feOffset dy="0.2"/>
<feGaussianBlur stdDeviation="0.5"/>
<feComposite in2="hardAlpha" operator="arithmetic" k2="-1" k3="1"/>
<feColorMatrix type="matrix" values="0 0 0 0 0 0 0 0 0 0 0 0 0 0 0 0 0 0 0.25 0"/>
<feBlend mode="normal" in2="shape" result="effect1_innerShadow"/>
</filter>
<filter id="filter12_i" x="344.223" y="1.36841" width="7.90538" height="13.6315" filterUnits="userSpaceOnUse" color-interpolation-filters="sRGB">
<feFlood flood-opacity="0" result="BackgroundImageFix"/>
<feBlend mode="normal" in="SourceGraphic" in2="BackgroundImageFix" result="shape"/>
<feColorMatrix in="SourceAlpha" type="matrix" values="0 0 0 0 0 0 0 0 0 0 0 0 0 0 0 0 0 0 127 0" result="hardAlpha"/>
<feOffset dy="-3"/>
<feGaussianBlur stdDeviation="0.5"/>
<feComposite in2="hardAlpha" operator="arithmetic" k2="-1" k3="1"/>
<feColorMatrix type="matrix" values="0 0 0 0 0.4875 0 0 0 0 0.631 0 0 0 0 1 0 0 0 1 0"/>
<feBlend mode="normal" in2="shape" result="effect1_innerShadow"/>
</filter>
<filter id="filter13_i" x="344.61" y="0" width="7.13087" height="4.93682" filterUnits="userSpaceOnUse" color-interpolation-filters="sRGB">
<feFlood flood-opacity="0" result="BackgroundImageFix"/>
<feBlend mode="normal" in="SourceGraphic" in2="BackgroundImageFix" result="shape"/>
<feColorMatrix in="SourceAlpha" type="matrix" values="0 0 0 0 0 0 0 0 0 0 0 0 0 0 0 0 0 0 127 0" result="hardAlpha"/>
<feOffset dy="0.2"/>
<feGaussianBlur stdDeviation="0.5"/>
<feComposite in2="hardAlpha" operator="arithmetic" k2="-1" k3="1"/>
<feColorMatrix type="matrix" values="0 0 0 0 0 0 0 0 0 0 0 0 0 0 0 0 0 0 0.25 0"/>
<feBlend mode="normal" in2="shape" result="effect1_innerShadow"/>
</filter>
<filter id="filter14_i" x="270" y="1.36853" width="7.90538" height="13.6315" filterUnits="userSpaceOnUse" color-interpolation-filters="sRGB">
<feFlood flood-opacity="0" result="BackgroundImageFix"/>
<feBlend mode="normal" in="SourceGraphic" in2="BackgroundImageFix" result="shape"/>
<feColorMatrix in="SourceAlpha" type="matrix" values="0 0 0 0 0 0 0 0 0 0 0 0 0 0 0 0 0 0 127 0" result="hardAlpha"/>
<feOffset dy="-3"/>
<feGaussianBlur stdDeviation="0.5"/>
<feComposite in2="hardAlpha" operator="arithmetic" k2="-1" k3="1"/>
<feColorMatrix type="matrix" values="0 0 0 0 1 0 0 0 0 0.4 0 0 0 0 0.4 0 0 0 1 0"/>
<feBlend mode="normal" in2="shape" result="effect1_innerShadow"/>
</filter>
<filter id="filter15_i" x="270.387" y="0" width="7.13087" height="4.93682" filterUnits="userSpaceOnUse" color-interpolation-filters="sRGB">
<feFlood flood-opacity="0" result="BackgroundImageFix"/>
<feBlend mode="normal" in="SourceGraphic" in2="BackgroundImageFix" result="shape"/>
<feColorMatrix in="SourceAlpha" type="matrix" values="0 0 0 0 0 0 0 0 0 0 0 0 0 0 0 0 0 0 127 0" result="hardAlpha"/>
<feOffset dy="0.2"/>
<feGaussianBlur stdDeviation="0.5"/>
<feComposite in2="hardAlpha" operator="arithmetic" k2="-1" k3="1"/>
<feColorMatrix type="matrix" values="0 0 0 0 0 0 0 0 0 0 0 0 0 0 0 0 0 0 0.25 0"/>
<feBlend mode="normal" in2="shape" result="effect1_innerShadow"/>
</filter>
<filter id="filter16_i" x="307.111" y="1.36841" width="7.90538" height="13.6315" filterUnits="userSpaceOnUse" color-interpolation-filters="sRGB">
<feFlood flood-opacity="0" result="BackgroundImageFix"/>
<feBlend mode="normal" in="SourceGraphic" in2="BackgroundImageFix" result="shape"/>
<feColorMatrix in="SourceAlpha" type="matrix" values="0 0 0 0 0 0 0 0 0 0 0 0 0 0 0 0 0 0 127 0" result="hardAlpha"/>
<feOffset dy="-3"/>
<feGaussianBlur stdDeviation="0.5"/>
<feComposite in2="hardAlpha" operator="arithmetic" k2="-1" k3="1"/>
<feColorMatrix type="matrix" values="0 0 0 0 1 0 0 0 0 0.566667 0 0 0 0 0.566667 0 0 0 1 0"/>
<feBlend mode="normal" in2="shape" result="effect1_innerShadow"/>
</filter>
<filter id="filter17_i" x="307.499" y="0" width="7.13087" height="4.93682" filterUnits="userSpaceOnUse" color-interpolation-filters="sRGB">
<feFlood flood-opacity="0" result="BackgroundImageFix"/>
<feBlend mode="normal" in="SourceGraphic" in2="BackgroundImageFix" result="shape"/>
<feColorMatrix in="SourceAlpha" type="matrix" values="0 0 0 0 0 0 0 0 0 0 0 0 0 0 0 0 0 0 127 0" result="hardAlpha"/>
<feOffset dy="0.2"/>
<feGaussianBlur stdDeviation="0.5"/>
<feComposite in2="hardAlpha" operator="arithmetic" k2="-1" k3="1"/>
<feColorMatrix type="matrix" values="0 0 0 0 0 0 0 0 0 0 0 0 0 0 0 0 0 0 0.25 0"/>
<feBlend mode="normal" in2="shape" result="effect1_innerShadow"/>
</filter>
<filter id="filter18_i" x="418.446" y="1.36841" width="7.90538" height="13.6315" filterUnits="userSpaceOnUse" color-interpolation-filters="sRGB">
<feFlood flood-opacity="0" result="BackgroundImageFix"/>
<feBlend mode="normal" in="SourceGraphic" in2="BackgroundImageFix" result="shape"/>
<feColorMatrix in="SourceAlpha" type="matrix" values="0 0 0 0 0 0 0 0 0 0 0 0 0 0 0 0 0 0 127 0" result="hardAlpha"/>
<feOffset dy="-3"/>
<feGaussianBlur stdDeviation="0.5"/>
<feComposite in2="hardAlpha" operator="arithmetic" k2="-1" k3="1"/>
<feColorMatrix type="matrix" values="0 0 0 0 1 0 0 0 0 0.9 0 0 0 0 0 0 0 0 1 0"/>
<feBlend mode="normal" in2="shape" result="effect1_innerShadow"/>
</filter>
<filter id="filter19_i" x="418.833" y="0" width="7.13087" height="4.93682" filterUnits="userSpaceOnUse" color-interpolation-filters="sRGB">
<feFlood flood-opacity="0" result="BackgroundImageFix"/>
<feBlend mode="normal" in="SourceGraphic" in2="BackgroundImageFix" result="shape"/>
<feColorMatrix in="SourceAlpha" type="matrix" values="0 0 0 0 0 0 0 0 0 0 0 0 0 0 0 0 0 0 127 0" result="hardAlpha"/>
<feOffset dy="0.2"/>
<feGaussianBlur stdDeviation="0.5"/>
<feComposite in2="hardAlpha" operator="arithmetic" k2="-1" k3="1"/>
<feColorMatrix type="matrix" values="0 0 0 0 0 0 0 0 0 0 0 0 0 0 0 0 0 0 0.25 0"/>
<feBlend mode="normal" in2="shape" result="effect1_innerShadow"/>
</filter>
<filter id="filter20_i" x="381.335" y="1.36841" width="7.90538" height="13.6315" filterUnits="userSpaceOnUse" color-interpolation-filters="sRGB">
<feFlood flood-opacity="0" result="BackgroundImageFix"/>
<feBlend mode="normal" in="SourceGraphic" in2="BackgroundImageFix" result="shape"/>
<feColorMatrix in="SourceAlpha" type="matrix" values="0 0 0 0 0 0 0 0 0 0 0 0 0 0 0 0 0 0 127 0" result="hardAlpha"/>
<feOffset dy="-3"/>
<feGaussianBlur stdDeviation="0.5"/>
<feComposite in2="hardAlpha" operator="arithmetic" k2="-1" k3="1"/>
<feColorMatrix type="matrix" values="0 0 0 0 0.4125 0 0 0 0 1 0 0 0 0 0.6475 0 0 0 1 0"/>
<feBlend mode="normal" in2="shape" result="effect1_innerShadow"/>
</filter>
<filter id="filter21_i" x="381.721" y="0" width="7.13087" height="4.93682" filterUnits="userSpaceOnUse" color-interpolation-filters="sRGB">
<feFlood flood-opacity="0" result="BackgroundImageFix"/>
<feBlend mode="normal" in="SourceGraphic" in2="BackgroundImageFix" result="shape"/>
<feColorMatrix in="SourceAlpha" type="matrix" values="0 0 0 0 0 0 0 0 0 0 0 0 0 0 0 0 0 0 127 0" result="hardAlpha"/>
<feOffset dy="0.2"/>
<feGaussianBlur stdDeviation="0.5"/>
<feComposite in2="hardAlpha" operator="arithmetic" k2="-1" k3="1"/>
<feColorMatrix type="matrix" values="0 0 0 0 0 0 0 0 0 0 0 0 0 0 0 0 0 0 0.25 0"/>
<feBlend mode="normal" in2="shape" result="effect1_innerShadow"/>
</filter>
<radialGradient id="paint0_radial" cx="0" cy="0" r="1" gradientUnits="userSpaceOnUse" gradientTransform="translate(123.991 11.0526) rotate(66.0088) scale(3.88856 1.45325)">
<stop stop-color="white"/>
<stop offset="1" stop-color="white" stop-opacity="0"/>
</radialGradient>
<linearGradient id="paint1_linear" x1="125.176" y1="0" x2="125.176" y2="4.73682" gradientUnits="userSpaceOnUse">
<stop stop-color="#FF9C07"/>
<stop offset="1" stop-color="#FFC700"/>
</linearGradient>
<radialGradient id="paint2_radial" cx="0" cy="0" r="1" gradientUnits="userSpaceOnUse" gradientTransform="translate(123.2 3.55262) rotate(30.9296) scale(2.30397 1.04444)">
<stop stop-color="#FFF617"/>
<stop offset="1" stop-color="#FFB774" stop-opacity="0"/>
</radialGradient>
<radialGradient id="paint3_radial" cx="0" cy="0" r="1" gradientUnits="userSpaceOnUse" gradientTransform="translate(49.7669 11.0527) rotate(66.0088) scale(3.88856 1.45325)">
<stop stop-color="white"/>
<stop offset="1" stop-color="white" stop-opacity="0"/>
</radialGradient>
<linearGradient id="paint4_linear" x1="50.9529" y1="0" x2="50.9529" y2="4.73682" gradientUnits="userSpaceOnUse">
<stop stop-color="#FF9C07"/>
<stop offset="1" stop-color="#FFC700"/>
</linearGradient>
<radialGradient id="paint5_radial" cx="0" cy="0" r="1" gradientUnits="userSpaceOnUse" gradientTransform="translate(48.9765 3.55262) rotate(30.9296) scale(2.30397 1.04444)">
<stop stop-color="#FFF617"/>
<stop offset="1" stop-color="#FFB774" stop-opacity="0"/>
</radialGradient>
<radialGradient id="paint6_radial" cx="0" cy="0" r="1" gradientUnits="userSpaceOnUse" gradientTransform="translate(235.325 11.0527) rotate(66.0088) scale(3.88856 1.45325)">
<stop stop-color="white"/>
<stop offset="1" stop-color="white" stop-opacity="0"/>
</radialGradient>
<linearGradient id="paint7_linear" x1="236.51" y1="0" x2="236.51" y2="4.73682" gradientUnits="userSpaceOnUse">
<stop stop-color="#FF9C07"/>
<stop offset="1" stop-color="#FFC700"/>
</linearGradient>
<radialGradient id="paint8_radial" cx="0" cy="0" r="1" gradientUnits="userSpaceOnUse" gradientTransform="translate(234.534 3.55262) rotate(30.9296) scale(2.30397 1.04444)">
<stop stop-color="#FFF617"/>
<stop offset="1" stop-color="#FFB774" stop-opacity="0"/>
</radialGradient>
<radialGradient id="paint9_radial" cx="0" cy="0" r="1" gradientUnits="userSpaceOnUse" gradientTransform="translate(86.8782 11.0526) rotate(66.0088) scale(3.88856 1.45325)">
<stop stop-color="white"/>
<stop offset="1" stop-color="white" stop-opacity="0"/>
</radialGradient>
<linearGradient id="paint10_linear" x1="88.0642" y1="0" x2="88.0642" y2="4.73682" gradientUnits="userSpaceOnUse">
<stop stop-color="#FF9C07"/>
<stop offset="1" stop-color="#FFC700"/>
</linearGradient>
<radialGradient id="paint11_radial" cx="0" cy="0" r="1" gradientUnits="userSpaceOnUse" gradientTransform="translate(86.0879 3.55262) rotate(30.9296) scale(2.30397 1.04444)">
<stop stop-color="#FFF617"/>
<stop offset="1" stop-color="#FFB774" stop-opacity="0"/>
</radialGradient>
<radialGradient id="paint12_radial" cx="0" cy="0" r="1" gradientUnits="userSpaceOnUse" gradientTransform="translate(198.214 11.0526) rotate(66.0088) scale(3.88856 1.45325)">
<stop stop-color="white"/>
<stop offset="1" stop-color="white" stop-opacity="0"/>
</radialGradient>
<linearGradient id="paint13_linear" x1="199.399" y1="0" x2="199.399" y2="4.73682" gradientUnits="userSpaceOnUse">
<stop stop-color="#FF9C07"/>
<stop offset="1" stop-color="#FFC700"/>
</linearGradient>
<radialGradient id="paint14_radial" cx="0" cy="0" r="1" gradientUnits="userSpaceOnUse" gradientTransform="translate(197.422 3.55262) rotate(30.9296) scale(2.30397 1.04444)">
<stop stop-color="#FFF617"/>
<stop offset="1" stop-color="#FFB774" stop-opacity="0"/>
</radialGradient>
<radialGradient id="paint15_radial" cx="0" cy="0" r="1" gradientUnits="userSpaceOnUse" gradientTransform="translate(161.102 11.0526) rotate(66.0088) scale(3.88856 1.45325)">
<stop stop-color="white"/>
<stop offset="1" stop-color="white" stop-opacity="0"/>
</radialGradient>
<linearGradient id="paint16_linear" x1="162.287" y1="0" x2="162.287" y2="4.73682" gradientUnits="userSpaceOnUse">
<stop stop-color="#FF9C07"/>
<stop offset="1" stop-color="#FFC700"/>
</linearGradient>
<radialGradient id="paint17_radial" cx="0" cy="0" r="1" gradientUnits="userSpaceOnUse" gradientTransform="translate(160.311 3.55262) rotate(30.9296) scale(2.30397 1.04444)">
<stop stop-color="#FFF617"/>
<stop offset="1" stop-color="#FFB774" stop-opacity="0"/>
</radialGradient>
<radialGradient id="paint18_radial" cx="0" cy="0" r="1" gradientUnits="userSpaceOnUse" gradientTransform="translate(346.99 11.0526) rotate(66.0088) scale(3.88856 1.45325)">
<stop stop-color="white"/>
<stop offset="1" stop-color="white" stop-opacity="0"/>
</radialGradient>
<linearGradient id="paint19_linear" x1="348.175" y1="0" x2="348.175" y2="4.73682" gradientUnits="userSpaceOnUse">
<stop stop-color="#FF9C07"/>
<stop offset="1" stop-color="#FFC700"/>
</linearGradient>
<radialGradient id="paint20_radial" cx="0" cy="0" r="1" gradientUnits="userSpaceOnUse" gradientTransform="translate(346.199 3.55262) rotate(30.9296) scale(2.30397 1.04444)">
<stop stop-color="#FFF617"/>
<stop offset="1" stop-color="#FFB774" stop-opacity="0"/>
</radialGradient>
<radialGradient id="paint21_radial" cx="0" cy="0" r="1" gradientUnits="userSpaceOnUse" gradientTransform="translate(272.767 11.0527) rotate(66.0088) scale(3.88856 1.45325)">
<stop stop-color="white"/>
<stop offset="1" stop-color="white" stop-opacity="0"/>
</radialGradient>
<linearGradient id="paint22_linear" x1="273.953" y1="0" x2="273.953" y2="4.73682" gradientUnits="userSpaceOnUse">
<stop stop-color="#FF9C07"/>
<stop offset="1" stop-color="#FFC700"/>
</linearGradient>
<radialGradient id="paint23_radial" cx="0" cy="0" r="1" gradientUnits="userSpaceOnUse" gradientTransform="translate(271.977 3.55262) rotate(30.9296) scale(2.30397 1.04444)">
<stop stop-color="#FFF617"/>
<stop offset="1" stop-color="#FFB774" stop-opacity="0"/>
</radialGradient>
<radialGradient id="paint24_radial" cx="0" cy="0" r="1" gradientUnits="userSpaceOnUse" gradientTransform="translate(309.878 11.0526) rotate(66.0088) scale(3.88856 1.45325)">
<stop stop-color="white"/>
<stop offset="1" stop-color="white" stop-opacity="0"/>
</radialGradient>
<linearGradient id="paint25_linear" x1="311.064" y1="0" x2="311.064" y2="4.73682" gradientUnits="userSpaceOnUse">
<stop stop-color="#FF9C07"/>
<stop offset="1" stop-color="#FFC700"/>
</linearGradient>
<radialGradient id="paint26_radial" cx="0" cy="0" r="1" gradientUnits="userSpaceOnUse" gradientTransform="translate(309.088 3.55262) rotate(30.9296) scale(2.30397 1.04444)">
<stop stop-color="#FFF617"/>
<stop offset="1" stop-color="#FFB774" stop-opacity="0"/>
</radialGradient>
<radialGradient id="paint27_radial" cx="0" cy="0" r="1" gradientUnits="userSpaceOnUse" gradientTransform="translate(421.213 11.0526) rotate(66.0088) scale(3.88856 1.45325)">
<stop stop-color="white"/>
<stop offset="1" stop-color="white" stop-opacity="0"/>
</radialGradient>
<linearGradient id="paint28_linear" x1="422.398" y1="0" x2="422.398" y2="4.73682" gradientUnits="userSpaceOnUse">
<stop stop-color="#FF9C07"/>
<stop offset="1" stop-color="#FFC700"/>
</linearGradient>
<radialGradient id="paint29_radial" cx="0" cy="0" r="1" gradientUnits="userSpaceOnUse" gradientTransform="translate(420.422 3.55262) rotate(30.9296) scale(2.30397 1.04444)">
<stop stop-color="#FFF617"/>
<stop offset="1" stop-color="#FFB774" stop-opacity="0"/>
</radialGradient>
<radialGradient id="paint30_radial" cx="0" cy="0" r="1" gradientUnits="userSpaceOnUse" gradientTransform="translate(384.102 11.0526) rotate(66.0088) scale(3.88856 1.45325)">
<stop stop-color="white"/>
<stop offset="1" stop-color="white" stop-opacity="0"/>
</radialGradient>
<linearGradient id="paint31_linear" x1="385.287" y1="0" x2="385.287" y2="4.73682" gradientUnits="userSpaceOnUse">
<stop stop-color="#FF9C07"/>
<stop offset="1" stop-color="#FFC700"/>
</linearGradient>
<radialGradient id="paint32_radial" cx="0" cy="0" r="1" gradientUnits="userSpaceOnUse" gradientTransform="translate(383.31 3.55262) rotate(30.9296) scale(2.30397 1.04444)">
<stop stop-color="#FFF617"/>
<stop offset="1" stop-color="#FFB774" stop-opacity="0"/>
</radialGradient>
<clipPath id="clip0">
<rect width="474" height="35" fill="white"/>
</clipPath>
</defs>
</svg>
