<svg width="578" height="53" viewBox="0 0 578 53" fill="none" xmlns="http://www.w3.org/2000/svg">
<g clip-path="url(#clip0)">
<g filter="url(#filter0_i)">
<path d="M147.5 26.306C147.5 31.8514 141.216 36.3468 141.216 36.3468C141.216 36.3468 134.932 31.8514 134.932 26.306C134.932 20.7607 137.745 16.2653 141.216 16.2653C144.686 16.2653 147.5 20.7607 147.5 26.306Z" fill="#376FFF"/>
<path d="M147.5 26.306C147.5 31.8514 141.216 36.3468 141.216 36.3468C141.216 36.3468 134.932 31.8514 134.932 26.306C134.932 20.7607 137.745 16.2653 141.216 16.2653C144.686 16.2653 147.5 20.7607 147.5 26.306Z" fill="url(#paint0_radial)"/>
</g>
<g filter="url(#filter1_i)">
<path d="M137.445 12.5H144.986L147.06 18.714C147.276 19.3616 146.794 20.0306 146.112 20.0306H136.32C135.637 20.0306 135.155 19.3616 135.371 18.714L137.445 12.5Z" fill="url(#paint1_linear)"/>
<path d="M137.445 12.5H144.986L147.06 18.714C147.276 19.3616 146.794 20.0306 146.112 20.0306H136.32C135.637 20.0306 135.155 19.3616 135.371 18.714L137.445 12.5Z" fill="url(#paint2_radial)"/>
</g>
<g filter="url(#filter2_i)">
<path d="M61.8602 18.2123C61.0207 23.6938 54.1285 27.186 54.1285 27.186C54.1285 27.186 48.5976 21.791 49.4371 16.3096C50.2767 10.8281 53.7383 6.81047 57.1688 7.3359C60.5994 7.86133 62.6998 12.7309 61.8602 18.2123Z" fill="#FF0000"/>
<path d="M61.8602 18.2123C61.0207 23.6938 54.1285 27.186 54.1285 27.186C54.1285 27.186 48.5976 21.791 49.4371 16.3096C50.2767 10.8281 53.7383 6.81047 57.1688 7.3359C60.5994 7.86133 62.6998 12.7309 61.8602 18.2123Z" fill="url(#paint3_radial)"/>
</g>
<g filter="url(#filter3_i)">
<path d="M54.012 3.04315L61.4658 4.1848L62.5752 10.6412C62.6909 11.314 62.1131 11.9023 61.4383 11.799L51.7593 10.3165C51.0844 10.2132 50.7092 9.47889 51.021 8.87147L54.012 3.04315Z" fill="url(#paint4_linear)"/>
<path d="M54.012 3.04315L61.4658 4.1848L62.5752 10.6412C62.6909 11.314 62.1131 11.9023 61.4383 11.799L51.7593 10.3165C51.0844 10.2132 50.7092 9.47889 51.021 8.87147L54.012 3.04315Z" fill="url(#paint5_radial)"/>
</g>
<g filter="url(#filter4_i)">
<path d="M269.202 15.076C270.44 20.4814 265.318 26.2661 265.318 26.2661C265.318 26.2661 258.189 23.287 256.951 17.8815C255.713 12.4761 257.452 7.46607 260.835 6.69134C264.218 5.9166 267.964 9.67053 269.202 15.076Z" fill="#AD00FF"/>
<path d="M269.202 15.076C270.44 20.4814 265.318 26.2661 265.318 26.2661C265.318 26.2661 258.189 23.287 256.951 17.8815C255.713 12.4761 257.452 7.46607 260.835 6.69134C264.218 5.9166 267.964 9.67053 269.202 15.076Z" fill="url(#paint6_radial)"/>
</g>
<g filter="url(#filter5_i)">
<path d="M256.319 3.86272L263.67 2.17938L267.079 7.77354C267.434 8.35655 267.113 9.11627 266.448 9.26867L256.903 11.4545C256.238 11.6069 255.619 11.0624 255.685 10.3829L256.319 3.86272Z" fill="url(#paint7_linear)"/>
<path d="M256.319 3.86272L263.67 2.17938L267.079 7.77354C267.434 8.35655 267.113 9.11627 266.448 9.26867L256.903 11.4545C256.238 11.6069 255.619 11.0624 255.685 10.3829L256.319 3.86272Z" fill="url(#paint8_radial)"/>
</g>
<g filter="url(#filter6_i)">
<path d="M105.952 23.4197C105.434 28.9408 98.7573 32.8295 98.7573 32.8295C98.7573 32.8295 92.9208 27.7668 93.4388 22.2457C93.9568 16.7245 97.1779 12.5116 100.633 12.8358C104.089 13.16 106.47 17.8986 105.952 23.4197Z" fill="#FF378B"/>
<path d="M105.952 23.4197C105.434 28.9408 98.7573 32.8295 98.7573 32.8295C98.7573 32.8295 92.9208 27.7668 93.4388 22.2457C93.9568 16.7245 97.1779 12.5116 100.633 12.8358C104.089 13.16 106.47 17.8986 105.952 23.4197Z" fill="url(#paint9_radial)"/>
</g>
<g filter="url(#filter7_i)">
<path d="M97.2311 8.73481L104.739 9.43924L106.223 15.8198C106.378 16.4848 105.836 17.1058 105.156 17.042L95.407 16.1273C94.7272 16.0635 94.3099 15.3524 94.5856 14.7279L97.2311 8.73481Z" fill="url(#paint10_linear)"/>
<path d="M97.2311 8.73481L104.739 9.43924L106.223 15.8198C106.378 16.4848 105.836 17.1058 105.156 17.042L95.407 16.1273C94.7272 16.0635 94.3099 15.3524 94.5856 14.7279L97.2311 8.73481Z" fill="url(#paint11_radial)"/>
</g>
<g filter="url(#filter8_i)">
<path d="M232.698 20.1975C233.392 25.6992 227.72 30.9461 227.72 30.9461C227.72 30.9461 220.923 27.2728 220.229 21.7711C219.534 16.2694 221.763 11.4571 225.206 11.0225C228.649 10.588 232.003 14.6958 232.698 20.1975Z" fill="#FFD600"/>
<path d="M232.698 20.1975C233.392 25.6992 227.72 30.9461 227.72 30.9461C227.72 30.9461 220.923 27.2728 220.229 21.7711C219.534 16.2694 221.763 11.4571 225.206 11.0225C228.649 10.588 232.003 14.6958 232.698 20.1975Z" fill="url(#paint12_radial)"/>
</g>
<g filter="url(#filter9_i)">
<path d="M220.994 7.75901L228.475 6.81486L231.311 12.7202C231.607 13.3357 231.212 14.0598 230.535 14.1453L220.82 15.3713C220.143 15.4567 219.581 14.8534 219.714 14.1838L220.994 7.75901Z" fill="url(#paint13_linear)"/>
<path d="M220.994 7.75901L228.475 6.81486L231.311 12.7202C231.607 13.3357 231.212 14.0598 230.535 14.1453L220.82 15.3713C220.143 15.4567 219.581 14.8534 219.714 14.1838L220.994 7.75901Z" fill="url(#paint14_radial)"/>
</g>
<g filter="url(#filter10_i)">
<path d="M188.928 25.2776C189.284 30.8115 183.301 35.701 183.301 35.701C183.301 35.701 176.742 31.6181 176.386 26.0842C176.03 20.5502 178.549 15.8835 182.013 15.6608C185.476 15.4381 188.572 19.7436 188.928 25.2776Z" fill="#00FF66"/>
<path d="M188.928 25.2776C189.284 30.8115 183.301 35.701 183.301 35.701C183.301 35.701 176.742 31.6181 176.386 26.0842C176.03 20.5502 178.549 15.8835 182.013 15.6608C185.476 15.4381 188.572 19.7436 188.928 25.2776Z" fill="url(#paint15_radial)"/>
</g>
<g filter="url(#filter11_i)">
<path d="M178.008 12.1453L185.534 11.6614L188.002 17.7294C188.26 18.3618 187.821 19.0604 187.14 19.1042L177.368 19.7326C176.687 19.7764 176.163 19.1397 176.337 18.4796L178.008 12.1453Z" fill="url(#paint16_linear)"/>
<path d="M178.008 12.1453L185.534 11.6614L188.002 17.7294C188.26 18.3618 187.821 19.0604 187.14 19.1042L177.368 19.7326C176.687 19.7764 176.163 19.1397 176.337 18.4796L178.008 12.1453Z" fill="url(#paint17_radial)"/>
</g>
<path d="M38 0.000117421C38 0.000117421 39 0 40 0C53.3504 2.15339 117.612 12.5001 157.25 12.5001C193.032 12.5001 256.572 3.53899 280 5.9247e-05H285" stroke="#47457A"/>
<g filter="url(#filter12_i)">
<path d="M394.5 26.306C394.5 31.8514 388.216 36.3468 388.216 36.3468C388.216 36.3468 381.932 31.8514 381.932 26.306C381.932 20.7607 384.745 16.2653 388.216 16.2653C391.686 16.2653 394.5 20.7607 394.5 26.306Z" fill="#376FFF"/>
<path d="M394.5 26.306C394.5 31.8514 388.216 36.3468 388.216 36.3468C388.216 36.3468 381.932 31.8514 381.932 26.306C381.932 20.7607 384.745 16.2653 388.216 16.2653C391.686 16.2653 394.5 20.7607 394.5 26.306Z" fill="url(#paint18_radial)"/>
</g>
<g filter="url(#filter13_i)">
<path d="M384.445 12.5H391.986L394.06 18.714C394.276 19.3616 393.794 20.0306 393.112 20.0306H383.32C382.637 20.0306 382.155 19.3616 382.371 18.714L384.445 12.5Z" fill="url(#paint19_linear)"/>
<path d="M384.445 12.5H391.986L394.06 18.714C394.276 19.3616 393.794 20.0306 393.112 20.0306H383.32C382.637 20.0306 382.155 19.3616 382.371 18.714L384.445 12.5Z" fill="url(#paint20_radial)"/>
</g>
<g filter="url(#filter14_i)">
<path d="M308.86 18.2123C308.021 23.6938 301.129 27.186 301.129 27.186C301.129 27.186 295.598 21.791 296.437 16.3096C297.277 10.8281 300.738 6.81047 304.169 7.3359C307.599 7.86133 309.7 12.7309 308.86 18.2123Z" fill="#FF0000"/>
<path d="M308.86 18.2123C308.021 23.6938 301.129 27.186 301.129 27.186C301.129 27.186 295.598 21.791 296.437 16.3096C297.277 10.8281 300.738 6.81047 304.169 7.3359C307.599 7.86133 309.7 12.7309 308.86 18.2123Z" fill="url(#paint21_radial)"/>
</g>
<g filter="url(#filter15_i)">
<path d="M301.012 3.04315L308.466 4.1848L309.575 10.6412C309.691 11.314 309.113 11.9023 308.438 11.799L298.759 10.3165C298.084 10.2132 297.709 9.47889 298.021 8.87147L301.012 3.04315Z" fill="url(#paint22_linear)"/>
<path d="M301.012 3.04315L308.466 4.1848L309.575 10.6412C309.691 11.314 309.113 11.9023 308.438 11.799L298.759 10.3165C298.084 10.2132 297.709 9.47889 298.021 8.87147L301.012 3.04315Z" fill="url(#paint23_radial)"/>
</g>
<g filter="url(#filter16_i)">
<path d="M516.202 15.076C517.44 20.4814 512.318 26.2661 512.318 26.2661C512.318 26.2661 505.189 23.287 503.951 17.8815C502.713 12.4761 504.452 7.46607 507.835 6.69134C511.218 5.9166 514.964 9.67053 516.202 15.076Z" fill="#AD00FF"/>
<path d="M516.202 15.076C517.44 20.4814 512.318 26.2661 512.318 26.2661C512.318 26.2661 505.189 23.287 503.951 17.8815C502.713 12.4761 504.452 7.46607 507.835 6.69134C511.218 5.9166 514.964 9.67053 516.202 15.076Z" fill="url(#paint24_radial)"/>
</g>
<g filter="url(#filter17_i)">
<path d="M503.319 3.86272L510.67 2.17938L514.079 7.77354C514.434 8.35655 514.113 9.11627 513.448 9.26867L503.903 11.4545C503.238 11.6069 502.619 11.0624 502.685 10.3829L503.319 3.86272Z" fill="url(#paint25_linear)"/>
<path d="M503.319 3.86272L510.67 2.17938L514.079 7.77354C514.434 8.35655 514.113 9.11627 513.448 9.26867L503.903 11.4545C503.238 11.6069 502.619 11.0624 502.685 10.3829L503.319 3.86272Z" fill="url(#paint26_radial)"/>
</g>
<g filter="url(#filter18_i)">
<path d="M352.952 23.4197C352.434 28.9408 345.757 32.8295 345.757 32.8295C345.757 32.8295 339.921 27.7668 340.439 22.2457C340.957 16.7245 344.178 12.5116 347.633 12.8358C351.089 13.16 353.47 17.8986 352.952 23.4197Z" fill="#FF378B"/>
<path d="M352.952 23.4197C352.434 28.9408 345.757 32.8295 345.757 32.8295C345.757 32.8295 339.921 27.7668 340.439 22.2457C340.957 16.7245 344.178 12.5116 347.633 12.8358C351.089 13.16 353.47 17.8986 352.952 23.4197Z" fill="url(#paint27_radial)"/>
</g>
<g filter="url(#filter19_i)">
<path d="M344.231 8.73481L351.739 9.43924L353.223 15.8198C353.378 16.4848 352.836 17.1058 352.156 17.042L342.407 16.1273C341.727 16.0635 341.31 15.3524 341.586 14.7279L344.231 8.73481Z" fill="url(#paint28_linear)"/>
<path d="M344.231 8.73481L351.739 9.43924L353.223 15.8198C353.378 16.4848 352.836 17.1058 352.156 17.042L342.407 16.1273C341.727 16.0635 341.31 15.3524 341.586 14.7279L344.231 8.73481Z" fill="url(#paint29_radial)"/>
</g>
<g filter="url(#filter20_i)">
<path d="M479.698 20.1975C480.392 25.6992 474.72 30.9461 474.72 30.9461C474.72 30.9461 467.923 27.2728 467.229 21.7711C466.534 16.2694 468.763 11.4571 472.206 11.0225C475.649 10.588 479.003 14.6958 479.698 20.1975Z" fill="#FFD600"/>
<path d="M479.698 20.1975C480.392 25.6992 474.72 30.9461 474.72 30.9461C474.72 30.9461 467.923 27.2728 467.229 21.7711C466.534 16.2694 468.763 11.4571 472.206 11.0225C475.649 10.588 479.003 14.6958 479.698 20.1975Z" fill="url(#paint30_radial)"/>
</g>
<g filter="url(#filter21_i)">
<path d="M467.994 7.75901L475.475 6.81486L478.311 12.7202C478.607 13.3357 478.212 14.0598 477.535 14.1453L467.82 15.3713C467.143 15.4567 466.581 14.8534 466.714 14.1838L467.994 7.75901Z" fill="url(#paint31_linear)"/>
<path d="M467.994 7.75901L475.475 6.81486L478.311 12.7202C478.607 13.3357 478.212 14.0598 477.535 14.1453L467.82 15.3713C467.143 15.4567 466.581 14.8534 466.714 14.1838L467.994 7.75901Z" fill="url(#paint32_radial)"/>
</g>
<g filter="url(#filter22_i)">
<path d="M435.928 25.2776C436.284 30.8115 430.301 35.701 430.301 35.701C430.301 35.701 423.742 31.6181 423.386 26.0842C423.03 20.5502 425.549 15.8835 429.013 15.6608C432.476 15.4381 435.572 19.7436 435.928 25.2776Z" fill="#00FF66"/>
<path d="M435.928 25.2776C436.284 30.8115 430.301 35.701 430.301 35.701C430.301 35.701 423.742 31.6181 423.386 26.0842C423.03 20.5502 425.549 15.8835 429.013 15.6608C432.476 15.4381 435.572 19.7436 435.928 25.2776Z" fill="url(#paint33_radial)"/>
</g>
<g filter="url(#filter23_i)">
<path d="M425.008 12.1453L432.534 11.6614L435.002 17.7294C435.26 18.3618 434.821 19.0604 434.14 19.1042L424.368 19.7326C423.687 19.7764 423.163 19.1397 423.337 18.4796L425.008 12.1453Z" fill="url(#paint34_linear)"/>
<path d="M425.008 12.1453L432.534 11.6614L435.002 17.7294C435.26 18.3618 434.821 19.0604 434.14 19.1042L424.368 19.7326C423.687 19.7764 423.163 19.1397 423.337 18.4796L425.008 12.1453Z" fill="url(#paint35_radial)"/>
</g>
<path d="M285 0.000117421C285 0.000117421 286 0 287 0C300.35 2.15339 364.612 12.5001 404.25 12.5001C440.032 12.5001 503.572 3.53899 527 5.9247e-05H532" stroke="#47457A"/>
</g>
<defs>
<filter id="filter0_i" x="134.932" y="15.2653" width="12.5679" height="21.0816" filterUnits="userSpaceOnUse" color-interpolation-filters="sRGB">
<feFlood flood-opacity="0" result="BackgroundImageFix"/>
<feBlend mode="normal" in="SourceGraphic" in2="BackgroundImageFix" result="shape"/>
<feColorMatrix in="SourceAlpha" type="matrix" values="0 0 0 0 0 0 0 0 0 0 0 0 0 0 0 0 0 0 127 0" result="hardAlpha"/>
<feOffset dy="-3"/>
<feGaussianBlur stdDeviation="0.5"/>
<feComposite in2="hardAlpha" operator="arithmetic" k2="-1" k3="1"/>
<feColorMatrix type="matrix" values="0 0 0 0 0.4875 0 0 0 0 0.631 0 0 0 0 1 0 0 0 1 0"/>
<feBlend mode="normal" in2="shape" result="effect1_innerShadow"/>
</filter>
<filter id="filter1_i" x="135.319" y="12.5" width="11.7934" height="7.73058" filterUnits="userSpaceOnUse" color-interpolation-filters="sRGB">
<feFlood flood-opacity="0" result="BackgroundImageFix"/>
<feBlend mode="normal" in="SourceGraphic" in2="BackgroundImageFix" result="shape"/>
<feColorMatrix in="SourceAlpha" type="matrix" values="0 0 0 0 0 0 0 0 0 0 0 0 0 0 0 0 0 0 127 0" result="hardAlpha"/>
<feOffset dy="0.2"/>
<feGaussianBlur stdDeviation="0.5"/>
<feComposite in2="hardAlpha" operator="arithmetic" k2="-1" k3="1"/>
<feColorMatrix type="matrix" values="0 0 0 0 0 0 0 0 0 0 0 0 0 0 0 0 0 0 0.25 0"/>
<feBlend mode="normal" in2="shape" result="effect1_innerShadow"/>
</filter>
<filter id="filter2_i" x="47.917" y="5.38452" width="15.4634" height="22.7528" filterUnits="userSpaceOnUse" color-interpolation-filters="sRGB">
<feFlood flood-opacity="0" result="BackgroundImageFix"/>
<feBlend mode="normal" in="SourceGraphic" in2="BackgroundImageFix" result="shape"/>
<feColorMatrix in="SourceAlpha" type="matrix" values="0 0 0 0 0 0 0 0 0 0 0 0 0 0 0 0 0 0 127 0" result="hardAlpha"/>
<feOffset dy="-3"/>
<feGaussianBlur stdDeviation="0.5"/>
<feComposite in2="hardAlpha" operator="arithmetic" k2="-1" k3="1"/>
<feColorMatrix type="matrix" values="0 0 0 0 1 0 0 0 0 0.4 0 0 0 0 0.4 0 0 0 1 0"/>
<feBlend mode="normal" in2="shape" result="effect1_innerShadow"/>
</filter>
<filter id="filter3_i" x="50.77" y="2.72119" width="12.7976" height="9.42927" filterUnits="userSpaceOnUse" color-interpolation-filters="sRGB">
<feFlood flood-opacity="0" result="BackgroundImageFix"/>
<feBlend mode="normal" in="SourceGraphic" in2="BackgroundImageFix" result="shape"/>
<feColorMatrix in="SourceAlpha" type="matrix" values="0 0 0 0 0 0 0 0 0 0 0 0 0 0 0 0 0 0 127 0" result="hardAlpha"/>
<feOffset dy="0.2"/>
<feGaussianBlur stdDeviation="0.5"/>
<feComposite in2="hardAlpha" operator="arithmetic" k2="-1" k3="1"/>
<feColorMatrix type="matrix" values="0 0 0 0 0 0 0 0 0 0 0 0 0 0 0 0 0 0 0.25 0"/>
<feBlend mode="normal" in2="shape" result="effect1_innerShadow"/>
</filter>
<filter id="filter4_i" x="254.71" y="4.28857" width="16.7336" height="23.3804" filterUnits="userSpaceOnUse" color-interpolation-filters="sRGB">
<feFlood flood-opacity="0" result="BackgroundImageFix"/>
<feBlend mode="normal" in="SourceGraphic" in2="BackgroundImageFix" result="shape"/>
<feColorMatrix in="SourceAlpha" type="matrix" values="0 0 0 0 0 0 0 0 0 0 0 0 0 0 0 0 0 0 127 0" result="hardAlpha"/>
<feOffset dy="-3"/>
<feGaussianBlur stdDeviation="0.5"/>
<feComposite in2="hardAlpha" operator="arithmetic" k2="-1" k3="1"/>
<feColorMatrix type="matrix" values="0 0 0 0 0.805719 0 0 0 0 0.395833 0 0 0 0 1 0 0 0 1 0"/>
<feBlend mode="normal" in2="shape" result="effect1_innerShadow"/>
</filter>
<filter id="filter5_i" x="254.247" y="1.70471" width="13.1769" height="10.1732" filterUnits="userSpaceOnUse" color-interpolation-filters="sRGB">
<feFlood flood-opacity="0" result="BackgroundImageFix"/>
<feBlend mode="normal" in="SourceGraphic" in2="BackgroundImageFix" result="shape"/>
<feColorMatrix in="SourceAlpha" type="matrix" values="0 0 0 0 0 0 0 0 0 0 0 0 0 0 0 0 0 0 127 0" result="hardAlpha"/>
<feOffset dy="0.2"/>
<feGaussianBlur stdDeviation="0.5"/>
<feComposite in2="hardAlpha" operator="arithmetic" k2="-1" k3="1"/>
<feColorMatrix type="matrix" values="0 0 0 0 0 0 0 0 0 0 0 0 0 0 0 0 0 0 0.25 0"/>
<feBlend mode="normal" in2="shape" result="effect1_innerShadow"/>
</filter>
<filter id="filter6_i" x="92.5008" y="11.2488" width="14.3889" height="22.1678" filterUnits="userSpaceOnUse" color-interpolation-filters="sRGB">
<feFlood flood-opacity="0" result="BackgroundImageFix"/>
<feBlend mode="normal" in="SourceGraphic" in2="BackgroundImageFix" result="shape"/>
<feColorMatrix in="SourceAlpha" type="matrix" values="0 0 0 0 0 0 0 0 0 0 0 0 0 0 0 0 0 0 127 0" result="hardAlpha"/>
<feOffset dy="-3"/>
<feGaussianBlur stdDeviation="0.5"/>
<feComposite in2="hardAlpha" operator="arithmetic" k2="-1" k3="1"/>
<feColorMatrix type="matrix" values="0 0 0 0 1 0 0 0 0 0.566667 0 0 0 0 0.566667 0 0 0 1 0"/>
<feBlend mode="normal" in2="shape" result="effect1_innerShadow"/>
</filter>
<filter id="filter7_i" x="94.4106" y="8.53613" width="12.4453" height="8.79935" filterUnits="userSpaceOnUse" color-interpolation-filters="sRGB">
<feFlood flood-opacity="0" result="BackgroundImageFix"/>
<feBlend mode="normal" in="SourceGraphic" in2="BackgroundImageFix" result="shape"/>
<feColorMatrix in="SourceAlpha" type="matrix" values="0 0 0 0 0 0 0 0 0 0 0 0 0 0 0 0 0 0 127 0" result="hardAlpha"/>
<feOffset dy="0.2"/>
<feGaussianBlur stdDeviation="0.5"/>
<feComposite in2="hardAlpha" operator="arithmetic" k2="-1" k3="1"/>
<feColorMatrix type="matrix" values="0 0 0 0 0 0 0 0 0 0 0 0 0 0 0 0 0 0 0.25 0"/>
<feBlend mode="normal" in2="shape" result="effect1_innerShadow"/>
</filter>
<filter id="filter8_i" x="218.971" y="9.23572" width="14.9834" height="22.4971" filterUnits="userSpaceOnUse" color-interpolation-filters="sRGB">
<feFlood flood-opacity="0" result="BackgroundImageFix"/>
<feBlend mode="normal" in="SourceGraphic" in2="BackgroundImageFix" result="shape"/>
<feColorMatrix in="SourceAlpha" type="matrix" values="0 0 0 0 0 0 0 0 0 0 0 0 0 0 0 0 0 0 127 0" result="hardAlpha"/>
<feOffset dy="-3"/>
<feGaussianBlur stdDeviation="0.5"/>
<feComposite in2="hardAlpha" operator="arithmetic" k2="-1" k3="1"/>
<feColorMatrix type="matrix" values="0 0 0 0 1 0 0 0 0 0.9 0 0 0 0 0 0 0 0 1 0"/>
<feBlend mode="normal" in2="shape" result="effect1_innerShadow"/>
</filter>
<filter id="filter9_i" x="218.884" y="6.54858" width="12.6435" height="9.14794" filterUnits="userSpaceOnUse" color-interpolation-filters="sRGB">
<feFlood flood-opacity="0" result="BackgroundImageFix"/>
<feBlend mode="normal" in="SourceGraphic" in2="BackgroundImageFix" result="shape"/>
<feColorMatrix in="SourceAlpha" type="matrix" values="0 0 0 0 0 0 0 0 0 0 0 0 0 0 0 0 0 0 127 0" result="hardAlpha"/>
<feOffset dy="0.2"/>
<feGaussianBlur stdDeviation="0.5"/>
<feComposite in2="hardAlpha" operator="arithmetic" k2="-1" k3="1"/>
<feColorMatrix type="matrix" values="0 0 0 0 0 0 0 0 0 0 0 0 0 0 0 0 0 0 0.25 0"/>
<feBlend mode="normal" in2="shape" result="effect1_innerShadow"/>
</filter>
<filter id="filter10_i" x="175.742" y="14.2574" width="13.8308" height="21.8467" filterUnits="userSpaceOnUse" color-interpolation-filters="sRGB">
<feFlood flood-opacity="0" result="BackgroundImageFix"/>
<feBlend mode="normal" in="SourceGraphic" in2="BackgroundImageFix" result="shape"/>
<feColorMatrix in="SourceAlpha" type="matrix" values="0 0 0 0 0 0 0 0 0 0 0 0 0 0 0 0 0 0 127 0" result="hardAlpha"/>
<feOffset dy="-3"/>
<feGaussianBlur stdDeviation="0.5"/>
<feComposite in2="hardAlpha" operator="arithmetic" k2="-1" k3="1"/>
<feColorMatrix type="matrix" values="0 0 0 0 0.4125 0 0 0 0 1 0 0 0 0 0.6475 0 0 0 1 0"/>
<feBlend mode="normal" in2="shape" result="effect1_innerShadow"/>
</filter>
<filter id="filter11_i" x="175.886" y="11.5249" width="12.2524" height="8.47194" filterUnits="userSpaceOnUse" color-interpolation-filters="sRGB">
<feFlood flood-opacity="0" result="BackgroundImageFix"/>
<feBlend mode="normal" in="SourceGraphic" in2="BackgroundImageFix" result="shape"/>
<feColorMatrix in="SourceAlpha" type="matrix" values="0 0 0 0 0 0 0 0 0 0 0 0 0 0 0 0 0 0 127 0" result="hardAlpha"/>
<feOffset dy="0.2"/>
<feGaussianBlur stdDeviation="0.5"/>
<feComposite in2="hardAlpha" operator="arithmetic" k2="-1" k3="1"/>
<feColorMatrix type="matrix" values="0 0 0 0 0 0 0 0 0 0 0 0 0 0 0 0 0 0 0.25 0"/>
<feBlend mode="normal" in2="shape" result="effect1_innerShadow"/>
</filter>
<filter id="filter12_i" x="381.932" y="15.2653" width="12.5679" height="21.0816" filterUnits="userSpaceOnUse" color-interpolation-filters="sRGB">
<feFlood flood-opacity="0" result="BackgroundImageFix"/>
<feBlend mode="normal" in="SourceGraphic" in2="BackgroundImageFix" result="shape"/>
<feColorMatrix in="SourceAlpha" type="matrix" values="0 0 0 0 0 0 0 0 0 0 0 0 0 0 0 0 0 0 127 0" result="hardAlpha"/>
<feOffset dy="-3"/>
<feGaussianBlur stdDeviation="0.5"/>
<feComposite in2="hardAlpha" operator="arithmetic" k2="-1" k3="1"/>
<feColorMatrix type="matrix" values="0 0 0 0 0.4875 0 0 0 0 0.631 0 0 0 0 1 0 0 0 1 0"/>
<feBlend mode="normal" in2="shape" result="effect1_innerShadow"/>
</filter>
<filter id="filter13_i" x="382.319" y="12.5" width="11.7934" height="7.73058" filterUnits="userSpaceOnUse" color-interpolation-filters="sRGB">
<feFlood flood-opacity="0" result="BackgroundImageFix"/>
<feBlend mode="normal" in="SourceGraphic" in2="BackgroundImageFix" result="shape"/>
<feColorMatrix in="SourceAlpha" type="matrix" values="0 0 0 0 0 0 0 0 0 0 0 0 0 0 0 0 0 0 127 0" result="hardAlpha"/>
<feOffset dy="0.2"/>
<feGaussianBlur stdDeviation="0.5"/>
<feComposite in2="hardAlpha" operator="arithmetic" k2="-1" k3="1"/>
<feColorMatrix type="matrix" values="0 0 0 0 0 0 0 0 0 0 0 0 0 0 0 0 0 0 0.25 0"/>
<feBlend mode="normal" in2="shape" result="effect1_innerShadow"/>
</filter>
<filter id="filter14_i" x="294.917" y="5.38452" width="15.4634" height="22.7528" filterUnits="userSpaceOnUse" color-interpolation-filters="sRGB">
<feFlood flood-opacity="0" result="BackgroundImageFix"/>
<feBlend mode="normal" in="SourceGraphic" in2="BackgroundImageFix" result="shape"/>
<feColorMatrix in="SourceAlpha" type="matrix" values="0 0 0 0 0 0 0 0 0 0 0 0 0 0 0 0 0 0 127 0" result="hardAlpha"/>
<feOffset dy="-3"/>
<feGaussianBlur stdDeviation="0.5"/>
<feComposite in2="hardAlpha" operator="arithmetic" k2="-1" k3="1"/>
<feColorMatrix type="matrix" values="0 0 0 0 1 0 0 0 0 0.4 0 0 0 0 0.4 0 0 0 1 0"/>
<feBlend mode="normal" in2="shape" result="effect1_innerShadow"/>
</filter>
<filter id="filter15_i" x="297.77" y="2.72119" width="12.7976" height="9.42927" filterUnits="userSpaceOnUse" color-interpolation-filters="sRGB">
<feFlood flood-opacity="0" result="BackgroundImageFix"/>
<feBlend mode="normal" in="SourceGraphic" in2="BackgroundImageFix" result="shape"/>
<feColorMatrix in="SourceAlpha" type="matrix" values="0 0 0 0 0 0 0 0 0 0 0 0 0 0 0 0 0 0 127 0" result="hardAlpha"/>
<feOffset dy="0.2"/>
<feGaussianBlur stdDeviation="0.5"/>
<feComposite in2="hardAlpha" operator="arithmetic" k2="-1" k3="1"/>
<feColorMatrix type="matrix" values="0 0 0 0 0 0 0 0 0 0 0 0 0 0 0 0 0 0 0.25 0"/>
<feBlend mode="normal" in2="shape" result="effect1_innerShadow"/>
</filter>
<filter id="filter16_i" x="501.71" y="4.28857" width="16.7336" height="23.3804" filterUnits="userSpaceOnUse" color-interpolation-filters="sRGB">
<feFlood flood-opacity="0" result="BackgroundImageFix"/>
<feBlend mode="normal" in="SourceGraphic" in2="BackgroundImageFix" result="shape"/>
<feColorMatrix in="SourceAlpha" type="matrix" values="0 0 0 0 0 0 0 0 0 0 0 0 0 0 0 0 0 0 127 0" result="hardAlpha"/>
<feOffset dy="-3"/>
<feGaussianBlur stdDeviation="0.5"/>
<feComposite in2="hardAlpha" operator="arithmetic" k2="-1" k3="1"/>
<feColorMatrix type="matrix" values="0 0 0 0 0.805719 0 0 0 0 0.395833 0 0 0 0 1 0 0 0 1 0"/>
<feBlend mode="normal" in2="shape" result="effect1_innerShadow"/>
</filter>
<filter id="filter17_i" x="501.247" y="1.70471" width="13.1769" height="10.1732" filterUnits="userSpaceOnUse" color-interpolation-filters="sRGB">
<feFlood flood-opacity="0" result="BackgroundImageFix"/>
<feBlend mode="normal" in="SourceGraphic" in2="BackgroundImageFix" result="shape"/>
<feColorMatrix in="SourceAlpha" type="matrix" values="0 0 0 0 0 0 0 0 0 0 0 0 0 0 0 0 0 0 127 0" result="hardAlpha"/>
<feOffset dy="0.2"/>
<feGaussianBlur stdDeviation="0.5"/>
<feComposite in2="hardAlpha" operator="arithmetic" k2="-1" k3="1"/>
<feColorMatrix type="matrix" values="0 0 0 0 0 0 0 0 0 0 0 0 0 0 0 0 0 0 0.25 0"/>
<feBlend mode="normal" in2="shape" result="effect1_innerShadow"/>
</filter>
<filter id="filter18_i" x="339.501" y="11.2488" width="14.3889" height="22.1678" filterUnits="userSpaceOnUse" color-interpolation-filters="sRGB">
<feFlood flood-opacity="0" result="BackgroundImageFix"/>
<feBlend mode="normal" in="SourceGraphic" in2="BackgroundImageFix" result="shape"/>
<feColorMatrix in="SourceAlpha" type="matrix" values="0 0 0 0 0 0 0 0 0 0 0 0 0 0 0 0 0 0 127 0" result="hardAlpha"/>
<feOffset dy="-3"/>
<feGaussianBlur stdDeviation="0.5"/>
<feComposite in2="hardAlpha" operator="arithmetic" k2="-1" k3="1"/>
<feColorMatrix type="matrix" values="0 0 0 0 1 0 0 0 0 0.566667 0 0 0 0 0.566667 0 0 0 1 0"/>
<feBlend mode="normal" in2="shape" result="effect1_innerShadow"/>
</filter>
<filter id="filter19_i" x="341.411" y="8.53613" width="12.4453" height="8.79935" filterUnits="userSpaceOnUse" color-interpolation-filters="sRGB">
<feFlood flood-opacity="0" result="BackgroundImageFix"/>
<feBlend mode="normal" in="SourceGraphic" in2="BackgroundImageFix" result="shape"/>
<feColorMatrix in="SourceAlpha" type="matrix" values="0 0 0 0 0 0 0 0 0 0 0 0 0 0 0 0 0 0 127 0" result="hardAlpha"/>
<feOffset dy="0.2"/>
<feGaussianBlur stdDeviation="0.5"/>
<feComposite in2="hardAlpha" operator="arithmetic" k2="-1" k3="1"/>
<feColorMatrix type="matrix" values="0 0 0 0 0 0 0 0 0 0 0 0 0 0 0 0 0 0 0.25 0"/>
<feBlend mode="normal" in2="shape" result="effect1_innerShadow"/>
</filter>
<filter id="filter20_i" x="465.971" y="9.23572" width="14.9834" height="22.4971" filterUnits="userSpaceOnUse" color-interpolation-filters="sRGB">
<feFlood flood-opacity="0" result="BackgroundImageFix"/>
<feBlend mode="normal" in="SourceGraphic" in2="BackgroundImageFix" result="shape"/>
<feColorMatrix in="SourceAlpha" type="matrix" values="0 0 0 0 0 0 0 0 0 0 0 0 0 0 0 0 0 0 127 0" result="hardAlpha"/>
<feOffset dy="-3"/>
<feGaussianBlur stdDeviation="0.5"/>
<feComposite in2="hardAlpha" operator="arithmetic" k2="-1" k3="1"/>
<feColorMatrix type="matrix" values="0 0 0 0 1 0 0 0 0 0.9 0 0 0 0 0 0 0 0 1 0"/>
<feBlend mode="normal" in2="shape" result="effect1_innerShadow"/>
</filter>
<filter id="filter21_i" x="465.884" y="6.54858" width="12.6435" height="9.14794" filterUnits="userSpaceOnUse" color-interpolation-filters="sRGB">
<feFlood flood-opacity="0" result="BackgroundImageFix"/>
<feBlend mode="normal" in="SourceGraphic" in2="BackgroundImageFix" result="shape"/>
<feColorMatrix in="SourceAlpha" type="matrix" values="0 0 0 0 0 0 0 0 0 0 0 0 0 0 0 0 0 0 127 0" result="hardAlpha"/>
<feOffset dy="0.2"/>
<feGaussianBlur stdDeviation="0.5"/>
<feComposite in2="hardAlpha" operator="arithmetic" k2="-1" k3="1"/>
<feColorMatrix type="matrix" values="0 0 0 0 0 0 0 0 0 0 0 0 0 0 0 0 0 0 0.25 0"/>
<feBlend mode="normal" in2="shape" result="effect1_innerShadow"/>
</filter>
<filter id="filter22_i" x="422.742" y="14.2574" width="13.8308" height="21.8467" filterUnits="userSpaceOnUse" color-interpolation-filters="sRGB">
<feFlood flood-opacity="0" result="BackgroundImageFix"/>
<feBlend mode="normal" in="SourceGraphic" in2="BackgroundImageFix" result="shape"/>
<feColorMatrix in="SourceAlpha" type="matrix" values="0 0 0 0 0 0 0 0 0 0 0 0 0 0 0 0 0 0 127 0" result="hardAlpha"/>
<feOffset dy="-3"/>
<feGaussianBlur stdDeviation="0.5"/>
<feComposite in2="hardAlpha" operator="arithmetic" k2="-1" k3="1"/>
<feColorMatrix type="matrix" values="0 0 0 0 0.4125 0 0 0 0 1 0 0 0 0 0.6475 0 0 0 1 0"/>
<feBlend mode="normal" in2="shape" result="effect1_innerShadow"/>
</filter>
<filter id="filter23_i" x="422.886" y="11.5249" width="12.2524" height="8.47194" filterUnits="userSpaceOnUse" color-interpolation-filters="sRGB">
<feFlood flood-opacity="0" result="BackgroundImageFix"/>
<feBlend mode="normal" in="SourceGraphic" in2="BackgroundImageFix" result="shape"/>
<feColorMatrix in="SourceAlpha" type="matrix" values="0 0 0 0 0 0 0 0 0 0 0 0 0 0 0 0 0 0 127 0" result="hardAlpha"/>
<feOffset dy="0.2"/>
<feGaussianBlur stdDeviation="0.5"/>
<feComposite in2="hardAlpha" operator="arithmetic" k2="-1" k3="1"/>
<feColorMatrix type="matrix" values="0 0 0 0 0 0 0 0 0 0 0 0 0 0 0 0 0 0 0.25 0"/>
<feBlend mode="normal" in2="shape" result="effect1_innerShadow"/>
</filter>
<radialGradient id="paint0_radial" cx="0" cy="0" r="1" gradientUnits="userSpaceOnUse" gradientTransform="translate(139.33 30.0713) rotate(66.0088) scale(6.18202 2.31038)">
<stop stop-color="white"/>
<stop offset="1" stop-color="white" stop-opacity="0"/>
</radialGradient>
<linearGradient id="paint1_linear" x1="141.216" y1="12.5" x2="141.216" y2="20.0306" gradientUnits="userSpaceOnUse">
<stop stop-color="#FF9C07"/>
<stop offset="1" stop-color="#FFC700"/>
</linearGradient>
<radialGradient id="paint2_radial" cx="0" cy="0" r="1" gradientUnits="userSpaceOnUse" gradientTransform="translate(138.074 18.1479) rotate(30.9296) scale(3.66284 1.66045)">
<stop stop-color="#FFF617"/>
<stop offset="1" stop-color="#FFB774" stop-opacity="0"/>
</radialGradient>
<radialGradient id="paint3_radial" cx="0" cy="0" r="1" gradientUnits="userSpaceOnUse" gradientTransform="translate(53.2152 20.6974) rotate(74.7167) scale(6.18202 2.31038)">
<stop stop-color="white"/>
<stop offset="1" stop-color="white" stop-opacity="0"/>
</radialGradient>
<linearGradient id="paint4_linear" x1="57.7389" y1="3.61397" x2="56.5988" y2="11.0578" gradientUnits="userSpaceOnUse">
<stop stop-color="#FF9C07"/>
<stop offset="1" stop-color="#FFC700"/>
</linearGradient>
<radialGradient id="paint5_radial" cx="0" cy="0" r="1" gradientUnits="userSpaceOnUse" gradientTransform="translate(53.778 8.72112) rotate(39.6375) scale(3.66284 1.66045)">
<stop stop-color="#FFF617"/>
<stop offset="1" stop-color="#FFB774" stop-opacity="0"/>
</radialGradient>
<radialGradient id="paint6_radial" cx="0" cy="0" r="1" gradientUnits="userSpaceOnUse" gradientTransform="translate(262.079 20.5699) rotate(53.1099) scale(6.18202 2.31038)">
<stop stop-color="white"/>
<stop offset="1" stop-color="white" stop-opacity="0"/>
</radialGradient>
<linearGradient id="paint7_linear" x1="259.995" y1="3.02105" x2="261.676" y2="10.3616" gradientUnits="userSpaceOnUse">
<stop stop-color="#FF9C07"/>
<stop offset="1" stop-color="#FFC700"/>
</linearGradient>
<radialGradient id="paint8_radial" cx="0" cy="0" r="1" gradientUnits="userSpaceOnUse" gradientTransform="translate(258.193 9.22785) rotate(18.0307) scale(3.66284 1.66045)">
<stop stop-color="#FFF617"/>
<stop offset="1" stop-color="#FFB774" stop-opacity="0"/>
</radialGradient>
<radialGradient id="paint9_radial" cx="0" cy="0" r="1" gradientUnits="userSpaceOnUse" gradientTransform="translate(97.4666 26.4054) rotate(71.369) scale(6.18202 2.31038)">
<stop stop-color="white"/>
<stop offset="1" stop-color="white" stop-opacity="0"/>
</radialGradient>
<linearGradient id="paint10_linear" x1="100.985" y1="9.08702" x2="100.282" y2="16.5847" gradientUnits="userSpaceOnUse">
<stop stop-color="#FF9C07"/>
<stop offset="1" stop-color="#FFC700"/>
</linearGradient>
<radialGradient id="paint11_radial" cx="0" cy="0" r="1" gradientUnits="userSpaceOnUse" gradientTransform="translate(97.3292 14.4168) rotate(36.2898) scale(3.66284 1.66045)">
<stop stop-color="#FFF617"/>
<stop offset="1" stop-color="#FFB774" stop-opacity="0"/>
</radialGradient>
<radialGradient id="paint12_radial" cx="0" cy="0" r="1" gradientUnits="userSpaceOnUse" gradientTransform="translate(225.064 24.956) rotate(58.8161) scale(6.18202 2.31038)">
<stop stop-color="white"/>
<stop offset="1" stop-color="white" stop-opacity="0"/>
</radialGradient>
<linearGradient id="paint13_linear" x1="224.735" y1="7.28694" x2="225.677" y2="14.7583" gradientUnits="userSpaceOnUse">
<stop stop-color="#FF9C07"/>
<stop offset="1" stop-color="#FFC700"/>
</linearGradient>
<radialGradient id="paint14_radial" cx="0" cy="0" r="1" gradientUnits="userSpaceOnUse" gradientTransform="translate(222.324 13.2838) rotate(23.737) scale(3.66284 1.66045)">
<stop stop-color="#FFF617"/>
<stop offset="1" stop-color="#FFB774" stop-opacity="0"/>
</radialGradient>
<radialGradient id="paint15_radial" cx="0" cy="0" r="1" gradientUnits="userSpaceOnUse" gradientTransform="translate(181.017 29.5594) rotate(62.3291) scale(6.18202 2.31038)">
<stop stop-color="white"/>
<stop offset="1" stop-color="white" stop-opacity="0"/>
</radialGradient>
<linearGradient id="paint16_linear" x1="181.771" y1="11.9033" x2="182.254" y2="19.4184" gradientUnits="userSpaceOnUse">
<stop stop-color="#FF9C07"/>
<stop offset="1" stop-color="#FFC700"/>
</linearGradient>
<radialGradient id="paint17_radial" cx="0" cy="0" r="1" gradientUnits="userSpaceOnUse" gradientTransform="translate(178.998 17.7413) rotate(27.25) scale(3.66284 1.66045)">
<stop stop-color="#FFF617"/>
<stop offset="1" stop-color="#FFB774" stop-opacity="0"/>
</radialGradient>
<radialGradient id="paint18_radial" cx="0" cy="0" r="1" gradientUnits="userSpaceOnUse" gradientTransform="translate(386.33 30.0713) rotate(66.0088) scale(6.18202 2.31038)">
<stop stop-color="white"/>
<stop offset="1" stop-color="white" stop-opacity="0"/>
</radialGradient>
<linearGradient id="paint19_linear" x1="388.216" y1="12.5" x2="388.216" y2="20.0306" gradientUnits="userSpaceOnUse">
<stop stop-color="#FF9C07"/>
<stop offset="1" stop-color="#FFC700"/>
</linearGradient>
<radialGradient id="paint20_radial" cx="0" cy="0" r="1" gradientUnits="userSpaceOnUse" gradientTransform="translate(385.074 18.1479) rotate(30.9296) scale(3.66284 1.66045)">
<stop stop-color="#FFF617"/>
<stop offset="1" stop-color="#FFB774" stop-opacity="0"/>
</radialGradient>
<radialGradient id="paint21_radial" cx="0" cy="0" r="1" gradientUnits="userSpaceOnUse" gradientTransform="translate(300.215 20.6974) rotate(74.7167) scale(6.18202 2.31038)">
<stop stop-color="white"/>
<stop offset="1" stop-color="white" stop-opacity="0"/>
</radialGradient>
<linearGradient id="paint22_linear" x1="304.739" y1="3.61397" x2="303.599" y2="11.0578" gradientUnits="userSpaceOnUse">
<stop stop-color="#FF9C07"/>
<stop offset="1" stop-color="#FFC700"/>
</linearGradient>
<radialGradient id="paint23_radial" cx="0" cy="0" r="1" gradientUnits="userSpaceOnUse" gradientTransform="translate(300.778 8.72112) rotate(39.6375) scale(3.66284 1.66045)">
<stop stop-color="#FFF617"/>
<stop offset="1" stop-color="#FFB774" stop-opacity="0"/>
</radialGradient>
<radialGradient id="paint24_radial" cx="0" cy="0" r="1" gradientUnits="userSpaceOnUse" gradientTransform="translate(509.079 20.5699) rotate(53.1099) scale(6.18202 2.31038)">
<stop stop-color="white"/>
<stop offset="1" stop-color="white" stop-opacity="0"/>
</radialGradient>
<linearGradient id="paint25_linear" x1="506.995" y1="3.02105" x2="508.676" y2="10.3616" gradientUnits="userSpaceOnUse">
<stop stop-color="#FF9C07"/>
<stop offset="1" stop-color="#FFC700"/>
</linearGradient>
<radialGradient id="paint26_radial" cx="0" cy="0" r="1" gradientUnits="userSpaceOnUse" gradientTransform="translate(505.193 9.22785) rotate(18.0307) scale(3.66284 1.66045)">
<stop stop-color="#FFF617"/>
<stop offset="1" stop-color="#FFB774" stop-opacity="0"/>
</radialGradient>
<radialGradient id="paint27_radial" cx="0" cy="0" r="1" gradientUnits="userSpaceOnUse" gradientTransform="translate(344.467 26.4054) rotate(71.369) scale(6.18202 2.31038)">
<stop stop-color="white"/>
<stop offset="1" stop-color="white" stop-opacity="0"/>
</radialGradient>
<linearGradient id="paint28_linear" x1="347.985" y1="9.08702" x2="347.282" y2="16.5847" gradientUnits="userSpaceOnUse">
<stop stop-color="#FF9C07"/>
<stop offset="1" stop-color="#FFC700"/>
</linearGradient>
<radialGradient id="paint29_radial" cx="0" cy="0" r="1" gradientUnits="userSpaceOnUse" gradientTransform="translate(344.329 14.4168) rotate(36.2898) scale(3.66284 1.66045)">
<stop stop-color="#FFF617"/>
<stop offset="1" stop-color="#FFB774" stop-opacity="0"/>
</radialGradient>
<radialGradient id="paint30_radial" cx="0" cy="0" r="1" gradientUnits="userSpaceOnUse" gradientTransform="translate(472.064 24.956) rotate(58.8161) scale(6.18202 2.31038)">
<stop stop-color="white"/>
<stop offset="1" stop-color="white" stop-opacity="0"/>
</radialGradient>
<linearGradient id="paint31_linear" x1="471.735" y1="7.28694" x2="472.677" y2="14.7583" gradientUnits="userSpaceOnUse">
<stop stop-color="#FF9C07"/>
<stop offset="1" stop-color="#FFC700"/>
</linearGradient>
<radialGradient id="paint32_radial" cx="0" cy="0" r="1" gradientUnits="userSpaceOnUse" gradientTransform="translate(469.324 13.2838) rotate(23.737) scale(3.66284 1.66045)">
<stop stop-color="#FFF617"/>
<stop offset="1" stop-color="#FFB774" stop-opacity="0"/>
</radialGradient>
<radialGradient id="paint33_radial" cx="0" cy="0" r="1" gradientUnits="userSpaceOnUse" gradientTransform="translate(428.017 29.5594) rotate(62.3291) scale(6.18202 2.31038)">
<stop stop-color="white"/>
<stop offset="1" stop-color="white" stop-opacity="0"/>
</radialGradient>
<linearGradient id="paint34_linear" x1="428.771" y1="11.9033" x2="429.254" y2="19.4184" gradientUnits="userSpaceOnUse">
<stop stop-color="#FF9C07"/>
<stop offset="1" stop-color="#FFC700"/>
</linearGradient>
<radialGradient id="paint35_radial" cx="0" cy="0" r="1" gradientUnits="userSpaceOnUse" gradientTransform="translate(425.998 17.7413) rotate(27.25) scale(3.66284 1.66045)">
<stop stop-color="#FFF617"/>
<stop offset="1" stop-color="#FFB774" stop-opacity="0"/>
</radialGradient>
<clipPath id="clip0">
<rect width="578" height="53" fill="white"/>
</clipPath>
</defs>
</svg>
